Coordinates
version=1
nRows=32
nColumns=22
inDegrees=yes

Units are S.I. units (second, meters, Newtons, ...)
If the header above contains a line with 'inDegrees', this indicates whether rotational values are in degrees (yes) or radians (no).

endheader
time	pelvis_tilt	pelvis_list	pelvis_rotation	pelvis_tx	pelvis_ty	pelvis_tz	hip_flexion_r	hip_adduction_r	hip_rotation_r	knee_angle_r	ankle_angle_r	subtalar_angle_r	hip_flexion_l	hip_adduction_l	hip_rotation_l	knee_angle_l	ankle_angle_l	subtalar_angle_l	lumbar_extension	lumbar_bending	lumbar_rotation
      0.01000000	    -10.13940405	      2.96833370	    -36.30670793	     -0.97380692	      0.88321185	     -0.37351218	      8.75382229	      3.12307271	      0.22691191	     -4.22099173	     10.55593765	     -2.67464527	      6.71964029	     -4.19608506	     -4.51944350	     -6.65648045	     14.27319910	      1.75358325	      6.15844710	      2.44099667	     10.55680121
      0.02000000	    -10.13653467	      2.96623769	    -36.30488362	     -0.97382363	      0.88321887	     -0.37351105	      8.75166650	      3.12334792	      0.22662562	     -4.22377511	     10.55716255	     -2.67512256	      6.71561368	     -4.19725075	     -4.52082352	     -6.65542184	     14.27192412	      1.75367181	      6.16624815	      2.43628000	     10.55622445
      0.03000000	    -10.11940192	      2.96947922	    -36.30962701	     -0.97382282	      0.88324028	     -0.37349405	      8.74461763	      3.11113683	      0.21357971	     -4.23620889	     10.58120899	     -2.68487736	      6.67607416	     -4.18253280	     -4.52806258	     -6.60608526	     14.23562341	      1.75325786	      6.16793072	      2.41814317	     10.55882173
      0.04000000	    -10.11643859	      2.96619612	    -36.30693339	     -0.97384537	      0.88324754	     -0.37350090	      8.74192557	      3.11232630	      0.21448099	     -4.23839950	     10.58079087	     -2.68500507	      6.67120795	     -4.18401957	     -4.53047588	     -6.60437622	     14.23569201	      1.75285446	      6.17666047	      2.41424703	     10.55671969
      0.05000000	    -10.11341145	      2.96400087	    -36.30795373	     -0.97385784	      0.88325332	     -0.37349820	      8.73898631	      3.11314991	      0.21243610	     -4.23844069	     10.58140612	     -2.68584812	      6.65199845	     -4.18361564	     -4.54696660	     -6.57523901	     14.23314775	      1.75046655	      6.18711368	      2.41122916	     10.54093280
      0.06000000	    -10.10948801	      2.96046155	    -36.30758493	     -0.97388247	      0.88326205	     -0.37351155	      8.73640635	      3.11395638	      0.21351332	     -4.24110979	     10.58123769	     -2.68589811	      6.64663399	     -4.18483214	     -4.54737312	     -6.57424054	     14.23137290	      1.75010877	      6.19426755	      2.40778243	     10.54035524
      0.07000000	    -10.08376366	      2.95365137	    -36.32269169	     -0.97390217	      0.88330334	     -0.37350063	      8.71716587	      3.10586185	      0.22495282	     -4.25190726	     10.59078855	     -2.68780415	      6.59293863	     -4.17421702	     -4.55296905	     -6.52485977	     14.19720101	      1.74361307	      6.17730975	      2.39506358	     10.54927415
      0.08000000	    -10.08101049	      2.95109659	    -36.32332911	     -0.97394121	      0.88331237	     -0.37353432	      8.71764164	      3.10579565	      0.22533664	     -4.25194474	     10.59067146	     -2.68780461	      6.59278925	     -4.17469712	     -4.55295443	     -6.52502908	     14.19729642	      1.74356257	      6.17957663	      2.39378936	     10.54867114
      0.09000000	    -10.07639832	      2.94860091	    -36.32795643	     -0.97398156	      0.88332159	     -0.37353208	      8.71679618	      3.10760985	      0.22852957	     -4.25595536	     10.58954405	     -2.68783452	      6.58971155	     -4.17694758	     -4.55223762	     -6.52799742	     14.19756431	      1.74342651	      6.18463302	      2.38638670	     10.54465828
      0.10000000	    -10.06346273	      2.94945498	    -36.33888709	     -0.97406243	      0.88334133	     -0.37357255	      8.72579143	      3.10020159	      0.25650951	     -4.28044503	     10.58411137	     -2.68925405	      6.58752060	     -4.16978493	     -4.55424915	     -6.53538184	     14.20013782	      1.74347248	      6.17171688	      2.37627337	     10.53575698
      0.11000000	    -10.06023742	      2.94886461	    -36.34655207	     -0.97413623	      0.88334904	     -0.37359264	      8.72952571	      3.10174483	      0.25854970	     -4.28125218	     10.58461328	     -2.68959564	      6.58935172	     -4.17111583	     -4.55411219	     -6.53625876	     14.20014897	      1.74353868	      6.16960381	      2.36953445	     10.53623616
      0.12000000	    -10.04624361	      2.96023696	    -36.37285803	     -0.97427253	      0.88336193	     -0.37363987	      8.75985460	      3.08712270	      0.31080197	     -4.32810354	     10.58344573	     -2.69464499	      6.59752985	     -4.15676952	     -4.56697757	     -6.55201080	     14.20017219	      1.74525314	      6.15483999	      2.34948733	     10.56257953
      0.13000000	    -10.04462095	      2.96137465	    -36.38382897	     -0.97436437	      0.88336805	     -0.37366167	      8.76657954	      3.08918239	      0.31191765	     -4.32661347	     10.58506002	     -2.69517540	      6.60066300	     -4.15806903	     -4.56900411	     -6.55071023	     14.20007990	      1.74537034	      6.15209394	      2.34276787	     10.56315461
      0.14000000	    -10.04634555	      3.00482794	    -36.44792010	     -0.97454605	      0.88333581	     -0.37365155	      8.84214629	      3.06488978	      0.40200178	     -4.39204024	     10.60930606	     -2.70877188	      6.62705427	     -4.13100417	     -4.64429101	     -6.54793142	     14.18960974	      1.74900541	      6.17492603	      2.30559043	     10.64308032
      0.15000000	    -10.04306567	      3.01085331	    -36.46521526	     -0.97466815	      0.88334147	     -0.37369359	      8.86450745	      3.06164738	      0.42759675	     -4.41439293	     10.60297278	     -2.71173690	      6.63465146	     -4.12730571	     -4.64660567	     -6.54964727	     14.18776286	      1.75109123	      6.16758709	      2.29652123	     10.64451444
      0.16000000	    -10.04598202	      3.03190819	    -36.49834903	     -0.97479566	      0.88332699	     -0.37370974	      8.90731731	      3.05213656	      0.46572381	     -4.44630165	     10.60412860	     -2.71659310	      6.64244973	     -4.11574143	     -4.67329586	     -6.52972029	     14.18042352	      1.75456675	      6.17738807	      2.27754567	     10.68816539
      0.17000000	    -10.04574776	      3.03194098	    -36.50132610	     -0.97486603	      0.88333039	     -0.37376217	      8.91271531	      3.05192643	      0.46671845	     -4.44384453	     10.60529419	     -2.71670446	      6.64651467	     -4.11566748	     -4.67523364	     -6.52626122	     14.17966317	      1.75466259	      6.17141916	      2.27610293	     10.68810365
      0.18000000	    -10.04719841	      3.05138228	    -36.53197461	     -0.97495579	      0.88331996	     -0.37378285	      8.94828958	      3.04065739	      0.50554390	     -4.47181766	     10.61116594	     -2.71675620	      6.64897707	     -4.10199662	     -4.70756288	     -6.50280327	     14.15459063	      1.75646245	      6.18064794	      2.26211841	     10.71908603
      0.19000000	    -10.04800351	      3.05052984	    -36.52993128	     -0.97500325	      0.88332227	     -0.37383126	      8.95191799	      3.04096985	      0.50592923	     -4.47005074	     10.61154984	     -2.71662243	      6.65213965	     -4.10225228	     -4.70961448	     -6.49842795	     14.15455706	      1.75642285	      6.17575174	      2.25943476	     10.72069907
      0.20000000	    -10.04926319	      3.05045883	    -36.52939765	     -0.97504249	      0.88332318	     -0.37388118	      8.95628166	      3.04048228	      0.50587400	     -4.46841352	     10.61141138	     -2.71639160	      6.65449700	     -4.10144989	     -4.71184514	     -6.49263130	     14.15384012	      1.75640814	      6.17114010	      2.25864647	     10.72296946
      0.21000000	    -10.05450259	      3.05699010	    -36.53665111	     -0.97506085	      0.88331603	     -0.37390670	      8.97023701	      3.03792270	      0.50585640	     -4.47400596	     10.60534366	     -2.71365156	      6.64681577	     -4.09708886	     -4.71943900	     -6.45908322	     14.14216990	      1.75690889	      6.17964455	      2.25533668	     10.74508353
      0.22000000	    -10.05593346	      3.05727166	    -36.53878843	     -0.97509444	      0.88331580	     -0.37395254	      8.97410575	      3.03738431	      0.50616439	     -4.47160225	     10.60585815	     -2.71332264	      6.64930940	     -4.09641231	     -4.71865900	     -6.45565067	     14.14128704	      1.75703876	      6.17297441	      2.25506752	     10.74627199
      0.23000000	    -10.05784431	      3.05748409	    -36.53866099	     -0.97511872	      0.88331424	     -0.37400103	      8.97818943	      3.03646989	      0.50680542	     -4.46966801	     10.60610965	     -2.71287286	      6.65126707	     -4.09567676	     -4.71661309	     -6.45068293	     14.14075662	      1.75732442	      6.16644213	      2.25494091	     10.75009286
      0.24000000	    -10.06011469	      3.05774631	    -36.53860394	     -0.97514067	      0.88331031	     -0.37404837	      8.98224509	      3.03553729	      0.50747583	     -4.46815334	     10.60627154	     -2.71234535	      6.65340698	     -4.09489029	     -4.71264782	     -6.44528439	     14.14086058	      1.75772999	      6.15924818	      2.25452209	     10.75563031
      0.25000000	    -10.06049061	      3.05904199	    -36.54175881	     -0.97516225	      0.88330766	     -0.37409263	      8.99033885	      3.03234425	      0.51499066	     -4.47609961	     10.60598880	     -2.70877108	      6.64954309	     -4.09248784	     -4.68329297	     -6.43370003	     14.14224855	      1.75984019	      6.15164154	      2.25012060	     10.78391235
      0.26000000	    -10.06309916	      3.05910228	    -36.54082640	     -0.97517222	      0.88330086	     -0.37413804	      8.99434130	      3.03069779	      0.51556213	     -4.47454109	     10.60663274	     -2.70839929	      6.65225951	     -4.09204859	     -4.68293496	     -6.43059028	     14.14270489	      1.75985865	      6.14308024	      2.24958599	     10.78506761
      0.27000000	    -10.06505820	      3.05857654	    -36.53818898	     -0.97518304	      0.88329722	     -0.37419236	      8.99882129	      3.02881153	      0.51765263	     -4.47501501	     10.60729774	     -2.70779924	      6.65630583	     -4.09082033	     -4.68090643	     -6.42883938	     14.14384331	      1.75989813	      6.13190970	      2.24843415	     10.78840741
      0.28000000	    -10.05640203	      3.05701348	    -36.53786101	     -0.97521292	      0.88330495	     -0.37426060	      9.00834699	      3.02050312	      0.53379130	     -4.50231249	     10.61212861	     -2.70275227	      6.66227732	     -4.08436109	     -4.65870473	     -6.45067091	     14.15289064	      1.75979590	      6.10580109	      2.23865672	     10.80761404
      0.29000000	    -10.05022265	      3.06380815	    -36.54159140	     -0.97522776	      0.88329576	     -0.37431861	      9.02975348	      3.00659197	      0.53900783	     -4.53911736	     10.64466420	     -2.68670190	      6.67360935	     -4.07202274	     -4.67155295	     -6.47045816	     14.17497617	      1.75393545	      6.08975072	      2.22475135	     10.82288319
      0.30000000	    -10.04803955	      3.05996785	    -36.53699221	     -0.97522884	      0.88329974	     -0.37437821	      9.03688210	      3.00328850	      0.54951416	     -4.55530504	     10.64501292	     -2.68270864	      6.68147416	     -4.07090341	     -4.66149700	     -6.48817177	     14.17558853	      1.75271542	      6.07186109	      2.22114756	     10.83457769
      0.31000000	    -10.04379217	      3.05635609	    -36.53474682	     -0.97522356	      0.88330278	     -0.37443686	      9.04559058	      2.99859415	      0.55881257	     -4.57924217	     10.65084879	     -2.67797254	      6.68985649	     -4.06780752	     -4.65490227	     -6.51148378	     14.18402558	      1.75011803	      6.05129511	      2.21663000	     10.84861123
      0.32000000	    -10.03874323	      3.05279608	    -36.53630837	     -0.97521129	      0.88330632	     -0.37448510	      9.05619409	      2.99435222	      0.56489593	     -4.60836758	     10.66376328	     -2.67211745	      6.69809329	     -4.06476887	     -4.65321724	     -6.53937591	     14.19775605	      1.74526370	      6.03124345	      2.21174947	     10.86697759
